<svg width="333" height="62" viewBox="0 0 333 62" fill="none" xmlns="http://www.w3.org/2000/svg">
<path d="M91.0429 24.8524C89.3737 23.7814 87.4632 23.2657 85.3113 23.2657C84.2253 23.2657 83.1996 23.4243 82.2142 23.7615C81.2287 24.0987 80.3237 24.5549 79.4992 25.1499C78.6746 25.7449 77.9506 26.4391 77.3473 27.2324C77.0657 27.5894 76.8244 27.9662 76.6032 28.3431V14.5389C76.6032 14.1422 76.4624 13.805 76.2009 13.5273C75.9395 13.2695 75.5976 13.1307 75.1753 13.1307C74.7328 13.1307 74.3909 13.2695 74.1295 13.5273C73.868 13.7852 73.7474 14.1224 73.7474 14.5389V46.4512C73.7474 46.8479 73.8882 47.1851 74.1496 47.4627C74.411 47.7206 74.7529 47.8594 75.1753 47.8594C75.5775 47.8594 75.9194 47.7206 76.2009 47.4627C76.4624 47.2049 76.6032 46.8677 76.6032 46.4512V43.377C76.8043 43.6943 77.0255 43.9918 77.2668 44.2893C77.8903 45.0629 78.6344 45.757 79.4589 46.3322C80.2835 46.9074 81.1885 47.3636 82.1941 47.7206C83.1996 48.0577 84.2454 48.2362 85.3515 48.2362C87.4431 48.2362 89.3335 47.6809 91.0027 46.59C92.6719 45.4992 94.0194 43.9918 94.9847 42.0878C95.9702 40.1838 96.4528 38.0417 96.4528 35.6617C96.4528 33.2222 95.9702 31.0801 94.9847 29.2158C94.0395 27.3712 92.7122 25.9234 91.0429 24.8524ZM92.5915 40.7193C91.8273 42.2266 90.8016 43.4365 89.5346 44.3092C88.2475 45.1819 86.7794 45.6182 85.0901 45.6182C83.3806 45.6182 81.8723 45.1819 80.5852 44.329C79.2779 43.4762 78.2724 42.2861 77.5283 40.759C76.7842 39.2516 76.402 37.5459 76.402 35.6815C76.402 33.7775 76.764 32.0917 77.5283 30.624C78.2724 29.1563 79.298 28.0059 80.5852 27.1531C81.8924 26.3002 83.3806 25.8837 85.0901 25.8837C86.7593 25.8837 88.2475 26.3002 89.5346 27.1531C90.8217 28.0059 91.8474 29.1563 92.5915 30.624C93.3557 32.0917 93.7378 33.7775 93.7378 35.6815C93.7378 37.5261 93.3557 39.1921 92.5915 40.7193Z" fill="#3572F1"/>
<path d="M113.346 24.7523C113.346 24.2168 113.085 23.84 112.542 23.602C111.999 23.364 111.456 23.245 110.873 23.245C109.505 23.245 108.278 23.5226 107.192 24.0978C106.106 24.6532 105.161 25.387 104.357 26.2993C103.572 27.2117 102.949 28.2034 102.486 29.2744C102.446 29.3736 102.406 29.4727 102.366 29.5719V25.3672C102.366 24.9903 102.225 24.673 101.964 24.3755C101.702 24.0978 101.36 23.959 100.938 23.959C100.536 23.959 100.194 24.0978 99.9122 24.3755C99.6507 24.6532 99.5099 24.9903 99.5099 25.3672V46.3512C99.5099 46.728 99.6306 47.0453 99.8921 47.3428C100.154 47.6205 100.495 47.7594 100.938 47.7594C101.32 47.7594 101.642 47.6205 101.943 47.3428C102.225 47.0652 102.366 46.728 102.366 46.3512V34.7881C102.366 33.6973 102.587 32.6064 103.009 31.5354C103.432 30.4644 104.015 29.4727 104.739 28.6C105.463 27.7274 106.267 27.0332 107.152 26.5175C108.037 26.0018 108.922 25.744 109.807 25.744C110.35 25.744 110.772 25.8233 111.114 25.982C111.456 26.1407 111.758 26.22 112.039 26.22C112.381 26.22 112.683 26.101 112.944 25.8432C113.226 25.5853 113.346 25.2283 113.346 24.7523Z" fill="#3572F1"/>
<path d="M130.984 26.1407C129.978 25.1887 128.812 24.4747 127.484 23.9788C126.177 23.5028 124.81 23.245 123.422 23.245C121.532 23.245 119.722 23.7606 118.032 24.7722C116.343 25.7837 114.955 27.2315 113.909 29.0959C112.844 30.9603 112.321 33.2411 112.321 35.879C112.321 38.3384 112.844 40.5002 113.889 42.3448C114.935 44.1893 116.383 45.6173 118.253 46.6487C120.124 47.68 122.276 48.1957 124.709 48.1957C126.519 48.1957 128.168 47.7792 129.697 46.9462C131.225 46.1132 132.452 45.1413 133.397 44.0108C133.719 43.7331 133.88 43.396 133.88 43.0191C133.88 42.7018 133.759 42.4241 133.518 42.1663C133.276 41.9084 132.995 41.7894 132.633 41.7894C132.311 41.7894 131.989 41.9283 131.627 42.2059C131.185 42.7613 130.622 43.3166 129.938 43.8125C129.254 44.3281 128.47 44.7446 127.585 45.062C126.7 45.3793 125.715 45.538 124.649 45.538C122.618 45.538 120.888 45.1017 119.48 44.229C118.052 43.3563 116.966 42.1663 116.202 40.6589C115.458 39.1714 115.076 37.5252 115.056 35.7005H133.015C133.397 35.7005 133.719 35.5617 134.021 35.3038C134.302 35.046 134.443 34.7088 134.443 34.3518C134.403 32.5469 134.081 30.9404 133.437 29.5719C132.814 28.2629 131.989 27.0927 130.984 26.1407ZM115.82 31.3371C116.323 30.1074 116.986 29.0959 117.791 28.2827C118.595 27.4894 119.5 26.8944 120.506 26.5175C121.511 26.1407 122.477 25.9622 123.422 25.9622C124.689 25.9622 125.896 26.22 127.062 26.7555C128.208 27.291 129.214 28.0645 130.039 29.0959C130.863 30.1272 131.346 31.3768 131.507 32.8445V33.2213H115.277C115.398 32.5668 115.579 31.9321 115.82 31.3371Z" fill="#3572F1"/>
<path d="M157.39 23.8201C156.947 23.8201 156.605 23.959 156.344 24.2366C156.083 24.5143 155.962 24.8713 155.962 25.268V28.2034C155.479 27.3505 154.856 26.5572 154.112 25.863C153.227 25.0498 152.181 24.4151 150.994 23.9391C149.808 23.4631 148.541 23.245 147.173 23.245C145.082 23.245 143.191 23.7805 141.522 24.8317C139.853 25.9027 138.505 27.3505 137.54 29.2149C136.555 31.0793 136.072 33.2213 136.072 35.6608C136.072 38.0409 136.555 40.1829 137.52 42.0869C138.485 43.991 139.813 45.4983 141.502 46.5892C143.191 47.68 145.102 48.2354 147.234 48.2354C148.601 48.2354 149.848 47.9974 151.015 47.5015C152.161 47.0255 153.166 46.3908 154.031 45.5975C154.856 44.8438 155.499 44.0505 155.982 43.1976V46.3512C155.982 46.728 156.103 47.0453 156.364 47.3428C156.626 47.6205 156.967 47.7594 157.41 47.7594C157.792 47.7594 158.114 47.6205 158.415 47.3428C158.697 47.0652 158.838 46.728 158.838 46.3512V25.268C158.838 24.8713 158.697 24.5143 158.436 24.2366C158.134 23.959 157.792 23.8201 157.39 23.8201ZM151.98 44.3281C150.673 45.181 149.184 45.6173 147.515 45.6173C145.846 45.6173 144.338 45.181 143.03 44.3281C141.723 43.4753 140.697 42.2853 139.973 40.7581C139.249 39.2507 138.887 37.545 138.887 35.6807C138.887 33.7766 139.249 32.0908 140.014 30.6231C140.758 29.1554 141.783 28.005 143.111 27.1522C144.418 26.2993 145.906 25.8828 147.555 25.8828C149.225 25.8828 150.713 26.3192 152.02 27.1919C153.327 28.0645 154.333 29.2347 155.077 30.7024C155.821 32.1701 156.203 33.8163 156.203 35.6608C156.203 37.5252 155.821 39.2309 155.077 40.7382C154.293 42.2654 153.267 43.4555 151.98 44.3281Z" fill="#3572F1"/>
<path d="M183.132 13.0901C182.69 13.0901 182.348 13.2289 182.086 13.5066C181.825 13.7842 181.704 14.1214 181.704 14.4982V28.2628C181.201 27.3703 180.558 26.5769 179.773 25.8828C178.868 25.0696 177.843 24.4349 176.656 23.9589C175.49 23.4829 174.243 23.2647 172.895 23.2647C170.804 23.2647 168.913 23.8002 167.244 24.8712C165.575 25.9423 164.228 27.4298 163.262 29.314C162.277 31.1982 161.794 33.3402 161.794 35.7004C161.794 38.1003 162.277 40.2423 163.262 42.1265C164.248 43.9909 165.575 45.4784 167.284 46.5693C168.974 47.6601 170.864 48.2155 172.956 48.2155C174.323 48.2155 175.57 47.9576 176.737 47.4618C177.883 46.9659 178.909 46.3114 179.773 45.4982C180.598 44.7446 181.221 43.9116 181.704 43.0389V46.3511C181.704 46.7279 181.825 47.0453 182.086 47.3428C182.348 47.6205 182.69 47.7593 183.132 47.7593C183.514 47.7593 183.836 47.6205 184.138 47.3428C184.419 47.0651 184.56 46.7279 184.56 46.3511V14.4982C184.56 14.1016 184.419 13.7644 184.158 13.4867C183.896 13.2289 183.554 13.0901 183.132 13.0901ZM177.722 44.3281C176.415 45.1809 174.927 45.6173 173.257 45.6173C171.608 45.6173 170.12 45.1809 168.813 44.3281C167.506 43.4752 166.46 42.2852 165.716 40.7977C164.972 39.2903 164.59 37.6045 164.59 35.7401C164.59 33.8757 164.952 32.1899 165.716 30.7023C166.46 29.2148 167.486 28.0446 168.813 27.1918C170.12 26.3389 171.608 25.9026 173.257 25.9026C174.927 25.9026 176.415 26.3389 177.722 27.1918C179.029 28.0446 180.035 29.2148 180.779 30.7023C181.523 32.1899 181.905 33.8559 181.905 35.7401C181.905 37.6441 181.523 39.3498 180.779 40.8175C180.035 42.2852 179.009 43.4554 177.722 44.3281Z" fill="#3572F1"/>
<path d="M206.883 43.0392C206.441 43.0392 206.079 43.1979 205.817 43.5351C205.556 43.8722 205.093 44.1896 204.47 44.5466C203.987 44.8243 203.404 45.0821 202.68 45.3003C201.976 45.5184 200.97 45.6374 199.703 45.6374C197.873 45.6374 196.244 45.2011 194.837 44.3483C193.429 43.4954 192.343 42.3054 191.558 40.8179C190.774 39.3105 190.392 37.6246 190.392 35.7603C190.392 33.9158 190.794 32.2497 191.619 30.7622C192.443 29.2747 193.57 28.1045 194.997 27.2318C196.425 26.3591 198.014 25.9228 199.804 25.9228C200.749 25.9228 201.614 26.0021 202.398 26.1608C203.183 26.3195 203.766 26.498 204.188 26.6765C204.631 26.8946 204.973 27.1326 205.194 27.3706C205.415 27.6285 205.636 27.8467 205.878 28.0252C206.119 28.2037 206.441 28.3028 206.843 28.3028C207.185 28.3028 207.486 28.164 207.728 27.8665C207.969 27.569 208.09 27.2715 208.09 26.9541C208.09 26.2996 207.708 25.6848 206.923 25.1294C206.139 24.5741 205.133 24.1179 203.866 23.8006C202.599 23.4634 201.212 23.3047 199.683 23.3047C197.25 23.3047 195.118 23.8799 193.308 25.0104C191.498 26.1608 190.09 27.6483 189.085 29.5325C188.079 31.3969 187.556 33.4794 187.556 35.7603C187.556 38.1403 188.059 40.2625 189.045 42.1467C190.05 44.0309 191.438 45.5184 193.228 46.6291C195.018 47.72 197.089 48.2753 199.422 48.2753C201.131 48.2753 202.64 48.0571 203.927 47.601C205.234 47.1448 206.24 46.6093 206.984 46.0143C207.728 45.3994 208.11 44.8441 208.11 44.3483C208.11 43.9714 207.989 43.6739 207.768 43.4359C207.567 43.1384 207.265 43.0392 206.883 43.0392Z" fill="#3572F1"/>
<path d="M223.756 23.6219C223.213 23.3839 222.671 23.2649 222.087 23.2649C220.72 23.2649 219.493 23.5426 218.407 24.1177C217.321 24.6731 216.376 25.4069 215.571 26.3193C214.787 27.2316 214.163 28.2233 213.701 29.2943C213.661 29.3935 213.62 29.4927 213.58 29.5918V25.3871C213.58 25.0103 213.439 24.6929 213.178 24.3954C212.917 24.1177 212.575 23.9789 212.152 23.9789C211.75 23.9789 211.408 24.1177 211.127 24.3954C210.865 24.6731 210.724 25.0103 210.724 25.3871V46.3711C210.724 46.7479 210.845 47.0653 211.107 47.3628C211.368 47.6404 211.71 47.7793 212.152 47.7793C212.534 47.7793 212.856 47.6404 213.158 47.3628C213.439 47.0851 213.58 46.7479 213.58 46.3711V34.8081C213.58 33.7172 213.801 32.6264 214.224 31.5554C214.646 30.4843 215.229 29.4927 215.953 28.62C216.677 27.7473 217.482 27.0531 218.367 26.5374C219.252 26.0218 220.136 25.7639 221.021 25.7639C221.564 25.7639 221.987 25.8433 222.329 26.0019C222.67 26.1606 222.972 26.2399 223.254 26.2399C223.596 26.2399 223.897 26.1209 224.159 25.8631C224.42 25.6053 224.541 25.2483 224.541 24.7921C224.561 24.2367 224.279 23.8401 223.756 23.6219Z" fill="#3572F1"/>
<path d="M244.31 23.959C243.867 23.959 243.526 24.0978 243.264 24.3755C243.003 24.6532 242.882 24.9903 242.882 25.3672V38.5764C242.882 40.8176 242.259 42.5431 241.032 43.7133C239.805 44.8835 238.096 45.4785 235.903 45.4785C233.752 45.4785 232.062 44.8835 230.835 43.7133C229.609 42.5431 229.005 40.8374 229.005 38.5764V25.3672C229.005 24.9903 228.865 24.673 228.603 24.3755C228.342 24.0978 228 23.959 227.577 23.959C227.175 23.959 226.833 24.0978 226.552 24.3755C226.29 24.6532 226.15 24.9903 226.15 25.3672V38.5764C226.15 41.6704 227.034 44.0306 228.784 45.657C230.534 47.2834 232.907 48.0965 235.883 48.0965C238.9 48.0965 241.273 47.2834 243.063 45.657C244.833 44.0306 245.718 41.6704 245.718 38.5764V25.3672C245.718 24.9903 245.577 24.673 245.315 24.3755C245.074 24.0978 244.732 23.959 244.31 23.959Z" fill="#3572F1"/>
<path d="M282.722 24.8911C281.496 24.0383 279.887 23.6218 277.896 23.6218C276.629 23.6218 275.382 23.8796 274.135 24.3755C272.908 24.8713 271.802 25.5457 270.837 26.3588C269.952 27.1125 269.308 27.9257 268.886 28.7785C268.343 27.2117 267.478 26.0018 266.312 25.149C264.924 24.1375 263.235 23.6218 261.284 23.6218C260.077 23.6218 258.931 23.84 257.845 24.2961C256.759 24.7523 255.773 25.3473 254.929 26.101C254.245 26.696 253.682 27.3505 253.219 28.0447V25.3473C253.219 24.9705 253.079 24.6531 252.817 24.3556C252.556 24.078 252.214 23.9391 251.791 23.9391C251.389 23.9391 251.047 24.078 250.766 24.3556C250.504 24.6333 250.364 24.9705 250.364 25.3473V46.3313C250.364 46.7082 250.484 47.0255 250.746 47.323C251.007 47.6007 251.349 47.7395 251.791 47.7395C252.174 47.7395 252.495 47.6007 252.797 47.323C253.079 47.0453 253.219 46.7082 253.219 46.3313V33.0824C253.219 31.7933 253.581 30.6429 254.285 29.6116C254.989 28.5802 255.934 27.767 257.081 27.1522C258.227 26.5373 259.454 26.2398 260.761 26.2398C262.209 26.2398 263.375 26.5373 264.22 27.1522C265.085 27.767 265.688 28.5802 266.07 29.6116C266.452 30.6429 266.633 31.7933 266.633 33.0824V46.3313C266.633 46.7082 266.774 47.0255 267.036 47.323C267.297 47.6007 267.639 47.7395 268.061 47.7395C268.464 47.7395 268.805 47.6007 269.087 47.323C269.348 47.0453 269.489 46.7082 269.489 46.3313V33.2213C269.489 31.9321 269.851 30.7619 270.615 29.7107C271.36 28.6397 272.325 27.8067 273.511 27.172C274.698 26.5572 275.945 26.2398 277.232 26.2398C278.72 26.2398 279.907 26.5572 280.792 27.172C281.677 27.8067 282.32 28.6397 282.742 29.7107C283.145 30.7817 283.366 31.9519 283.366 33.2213V46.3313C283.366 46.7082 283.507 47.0255 283.768 47.323C284.03 47.6007 284.371 47.7395 284.794 47.7395C285.196 47.7395 285.538 47.6007 285.819 47.323C286.081 47.0453 286.222 46.7082 286.222 46.3313V33.0824C286.222 31.2974 285.94 29.7107 285.397 28.2827C284.834 26.8745 283.949 25.744 282.722 24.8911Z" fill="#3572F1"/>
<path d="M308.082 24.8516C306.413 23.7806 304.503 23.2649 302.351 23.2649C301.265 23.2649 300.239 23.4236 299.254 23.7607C298.268 24.0979 297.363 24.5541 296.539 25.1491C295.714 25.7441 294.99 26.4383 294.387 27.2316C294.105 27.5886 293.864 27.9655 293.643 28.3423V14.5381C293.643 14.1414 293.502 13.8042 293.24 13.5266C292.979 13.2687 292.637 13.1299 292.215 13.1299C291.772 13.1299 291.43 13.2687 291.169 13.5266C290.907 13.7844 290.787 14.1216 290.787 14.5381V46.4504C290.787 46.8471 290.928 47.1843 291.189 47.4619C291.45 47.7198 291.792 47.8586 292.215 47.8586C292.617 47.8586 292.959 47.7198 293.24 47.4619C293.502 47.2041 293.643 46.8669 293.643 46.4504V43.3762C293.844 43.6935 294.065 43.9911 294.306 44.2886C294.93 45.0621 295.674 45.7562 296.498 46.3314C297.323 46.9066 298.228 47.3628 299.233 47.7198C300.239 48.0569 301.285 48.2355 302.391 48.2355C304.482 48.2355 306.373 47.6801 308.042 46.5893C309.711 45.4984 311.059 43.991 312.024 42.087C313.01 40.183 313.492 38.041 313.492 35.6609C313.492 33.2214 313.01 31.0793 312.024 29.215C311.079 27.3704 309.752 25.9226 308.082 24.8516ZM309.631 40.7185C308.867 42.2259 307.841 43.4357 306.574 44.3084C305.287 45.1811 303.819 45.6174 302.129 45.6174C300.42 45.6174 298.912 45.1811 297.625 44.3282C296.317 43.4754 295.312 42.2854 294.568 40.7582C293.824 39.2508 293.441 37.5451 293.441 35.6807C293.441 33.7767 293.803 32.0909 294.568 30.6232C295.312 29.1555 296.337 28.0051 297.625 27.1523C298.932 26.2994 300.42 25.8829 302.129 25.8829C303.799 25.8829 305.287 26.2994 306.574 27.1523C307.861 28.0051 308.887 29.1555 309.631 30.6232C310.395 32.0909 310.777 33.7767 310.777 35.6807C310.777 37.5253 310.395 39.1913 309.631 40.7185Z" fill="#3572F1"/>
<path d="M332.356 38.6362C331.934 37.8626 331.351 37.2081 330.647 36.6925C329.943 36.1768 329.118 35.7404 328.173 35.4033C327.248 35.0661 326.263 34.7686 325.257 34.5108C324.05 34.1934 322.964 33.8562 321.999 33.4794C321.034 33.1026 320.249 32.6266 319.666 32.0712C319.083 31.5159 318.761 30.782 318.701 29.8697C318.701 28.8978 318.962 28.1243 319.505 27.5293C320.048 26.9343 320.712 26.498 321.516 26.2005C322.321 25.903 323.186 25.7641 324.111 25.7641C325.317 25.7641 326.444 25.9823 327.489 26.4186C328.535 26.855 329.44 27.4896 330.204 28.3425C330.426 28.6003 330.707 28.7193 331.029 28.7193C331.351 28.7193 331.652 28.6202 331.914 28.4417C332.236 28.164 332.397 27.8467 332.397 27.4896C332.397 27.1326 332.256 26.8153 331.974 26.5376C331.27 25.7245 330.486 25.0898 329.601 24.6138C328.716 24.1378 327.811 23.8006 326.886 23.6023C325.961 23.4039 325.116 23.3047 324.312 23.3047C322.723 23.3047 321.315 23.5824 320.068 24.1576C318.821 24.7129 317.836 25.5063 317.092 26.498C316.368 27.4896 316.006 28.6598 316.006 29.9689C316.006 31.0994 316.247 32.0514 316.71 32.8249C317.192 33.5984 317.816 34.2728 318.58 34.8083C319.364 35.3636 320.249 35.7999 321.255 36.1768C322.26 36.5338 323.306 36.8511 324.392 37.1288C325.398 37.3866 326.363 37.6841 327.268 38.0213C328.173 38.3585 328.897 38.8345 329.48 39.4295C330.044 40.0245 330.345 40.798 330.345 41.7699C330.345 42.7021 330.064 43.4756 329.48 44.0904C328.917 44.7053 328.193 45.1614 327.329 45.4391C326.464 45.7366 325.579 45.8754 324.694 45.8754C323.025 45.8754 321.557 45.5383 320.35 44.8639C319.123 44.1896 318.097 43.3169 317.233 42.226C316.951 41.9484 316.629 41.7897 316.308 41.75C315.966 41.7104 315.684 41.8095 315.423 42.0277C315.041 42.2459 314.839 42.5434 314.819 42.9004C314.799 43.2574 314.92 43.6342 315.181 44.0111C316.408 45.5383 317.836 46.6291 319.425 47.2836C321.034 47.9381 322.683 48.2753 324.392 48.2753C325.981 48.2753 327.409 48.0175 328.716 47.482C330.023 46.9465 331.049 46.1928 331.833 45.1813C332.618 44.1896 333 42.9996 333 41.6112C333 40.4014 332.799 39.4097 332.356 38.6362Z" fill="#3572F1"/>
<path d="M57.377 0H5.51045C2.47367 0 0 2.43954 0 5.43442V56.5656C0 59.5803 2.47367 62 5.51045 62H57.3569C60.4138 62 62.8674 59.5605 62.8674 56.5656V5.43442C62.8875 2.43954 60.4138 0 57.377 0Z" fill="#3572F1"/>
<path d="M47.7036 38.7945C47.7036 38.7549 47.7036 38.735 47.6835 38.6954C47.6634 38.6359 47.6433 38.5962 47.583 38.5565C46.8389 37.8028 46.135 36.6723 45.6925 35.4426C45.3104 34.4311 45.1696 33.4593 45.2501 32.7453C45.2501 32.7254 45.2501 32.7056 45.2501 32.7056C45.2501 32.6858 45.2501 32.6659 45.2501 32.6263C45.2501 32.6064 45.23 32.5668 45.23 32.5469C45.23 32.5271 45.23 32.5073 45.2099 32.5073C45.2099 32.5073 45.2099 32.5073 45.2099 32.4874C45.1898 32.4478 45.1696 32.4279 45.1294 32.4081C45.1093 32.3883 45.0892 32.3684 45.049 32.3486C45.0289 32.3288 45.0088 32.3089 44.9685 32.3089C44.1239 32.0313 43.1786 31.1982 42.4546 30.1074C42.3943 30.0082 42.334 29.9091 42.2736 29.8297C41.5094 28.5604 41.1675 27.172 41.3888 26.2398C41.3888 26.22 41.3888 26.2002 41.3888 26.2002C41.3888 26.1605 41.3888 26.1208 41.3888 26.101C41.3888 26.0812 41.3887 26.0613 41.3686 26.0415C41.3485 26.0018 41.3485 25.9622 41.3083 25.9423C41.3083 25.9423 41.3083 25.9225 41.2882 25.9027L41.2681 25.8828C41.2681 25.8828 41.2681 25.863 41.248 25.863C41.2279 25.863 41.2279 25.8432 41.2279 25.8432C41.2078 25.8233 41.2078 25.8233 41.1876 25.8035C41.1675 25.7837 41.1474 25.7837 41.1273 25.7638C40.6044 25.5456 40.0011 25.149 39.4179 24.6135C38.4726 23.7408 37.6682 22.5904 37.3062 21.5591C37.3062 21.5591 37.3062 21.5591 37.2861 21.5393C37.266 21.4996 37.2459 21.4599 37.2056 21.4202C37.1855 21.4004 37.1453 21.3607 37.1051 21.3409C36.2001 20.8451 35.3152 20.5476 34.4504 20.4286C33.5253 20.3096 32.7007 20.3492 31.9566 20.5674C31.6147 20.6666 31.3131 20.8054 31.0516 20.9442V11.7613C31.0516 10.8886 30.7902 9.99606 30.2874 9.10355C29.7846 8.23087 29.121 7.55652 28.3567 7.12018C27.5121 6.64418 26.7881 6.56484 26.1847 6.92185H26.1646L16.3906 12.2373L16.0286 12.4356C15.4253 12.7926 15.1236 13.467 15.1236 14.4388V44.0901C15.1236 45.0223 15.3851 45.9148 15.8878 46.7677C16.3906 47.6403 17.0342 48.2948 17.8185 48.7312C18.6632 49.2072 19.4073 49.2865 20.0307 48.9097C20.4129 48.6717 20.6542 48.3345 20.795 47.8585C20.9156 48.037 21.0564 48.2353 21.1771 48.4337C21.9011 49.4849 22.786 50.5162 23.7714 51.5079C24.7569 52.4798 25.8429 53.3128 26.9691 53.9673C28.5377 54.8598 30.0059 55.316 31.3533 55.316C31.6952 55.316 31.9969 55.2961 32.3186 55.2366C32.922 55.1375 33.4449 54.959 33.9476 54.6813L34.1487 54.5623L42.2736 50.1592L43.9026 49.2667L43.9831 49.227C44.9283 48.751 45.7328 47.9973 46.3763 46.9462C47.3014 45.4388 47.7841 43.3166 47.7841 40.6787C47.7841 40.044 47.764 39.4094 47.7036 38.7945ZM44.9082 35.7203C45.3305 36.8707 45.9339 37.9417 46.6176 38.735L42.2535 41.0952L37.2056 43.8323C37.1855 43.8124 37.1855 43.8124 37.1654 43.7926C37.1252 43.7529 37.085 43.7133 37.0447 43.6736C37.0045 43.6141 36.9442 43.5546 36.904 43.4951C36.8637 43.4554 36.8235 43.3959 36.7833 43.3563C36.7431 43.2968 36.6827 43.2174 36.6425 43.1579C36.6023 43.1183 36.5621 43.0588 36.542 42.9993C36.5017 42.9199 36.4414 42.8604 36.4012 42.7811C36.361 42.7216 36.3409 42.6621 36.3006 42.6224C36.2604 42.5431 36.2202 42.4638 36.18 42.3844C36.1397 42.3249 36.1196 42.2853 36.0794 42.2257C36.0392 42.1464 35.999 42.0671 35.9587 41.9679C35.9386 41.9282 35.8984 41.8687 35.8783 41.8092C35.8381 41.7101 35.7979 41.6109 35.7576 41.5117C35.7375 41.4721 35.7174 41.4126 35.6973 41.3729C35.637 41.2341 35.5766 41.0754 35.5364 40.9366C35.1945 40.0044 35.0336 39.1317 35.0739 38.4375L42.2736 34.5303L44.4054 33.3799C44.4456 34.094 44.6065 34.8873 44.9082 35.7203ZM24.5155 36.2558C24.6764 36.1567 24.8574 36.117 25.0585 36.117C25.3803 36.117 25.7222 36.2162 26.1043 36.4343C27.6327 37.307 28.9199 39.6275 28.9199 41.4919C28.9199 42.3448 28.6584 42.9794 28.1959 43.2373C27.7936 43.4753 27.2305 43.3959 26.6071 43.0588C25.0786 42.1861 23.7915 39.8854 23.7915 38.0012C23.8116 37.1483 24.0731 36.5137 24.5155 36.2558ZM41.7508 30.5239C41.9116 30.7817 42.0926 31.0197 42.2736 31.2379C42.7764 31.8726 43.3395 32.3684 43.9228 32.7056L42.2736 33.5981L34.6515 37.7433C33.8471 37.4062 32.9823 36.6327 32.2985 35.6013C31.4539 34.332 31.0516 32.9039 31.2326 31.8924L40.524 26.8547C40.5039 27.9654 40.9463 29.2942 41.7508 30.5239ZM38.8547 25.1688C39.2771 25.5457 39.6994 25.8828 40.1016 26.1208L30.8103 31.1586C30.6494 31.0792 30.4885 30.9999 30.3276 30.9007C30.207 30.8214 30.1064 30.7619 29.9857 30.6627C29.7444 30.4842 29.5031 30.2859 29.2617 30.0677C29.1411 29.9686 29.0405 29.8496 28.9199 29.7504C28.8796 29.7107 28.8394 29.671 28.8193 29.6314C28.7389 29.552 28.6785 29.4727 28.5981 29.3934C28.5579 29.3537 28.5176 29.2942 28.4774 29.2545C28.4171 29.1752 28.3567 29.1157 28.2964 29.0364C28.2562 28.9967 28.216 28.9372 28.1757 28.8777C28.1154 28.7984 28.0752 28.7389 28.0149 28.6595C27.9746 28.6 27.9344 28.5604 27.9143 28.5009C27.8741 28.4215 27.8137 28.3422 27.7735 28.2827C27.7333 28.2232 27.7132 28.1835 27.673 28.124C27.6327 28.0447 27.5724 27.9654 27.5322 27.886C27.5121 27.8464 27.4719 27.7869 27.4517 27.7472C27.4115 27.6678 27.3713 27.5885 27.3311 27.4893C27.311 27.4497 27.2909 27.41 27.2707 27.3703C27.2707 27.3505 27.2506 27.3505 27.2506 27.3307L31.5946 24.9705L36.6827 22.2136C37.1654 23.2648 37.9296 24.3358 38.8547 25.1688ZM30.8505 22.0351C30.8706 22.0153 30.8907 22.0153 30.9109 21.9954C31.2326 21.7178 31.6751 21.4996 32.2181 21.3409C32.8214 21.1624 33.5454 21.1227 34.3499 21.2219C34.8727 21.3012 35.4359 21.4599 35.999 21.6979L35.6169 21.8963L26.7479 26.7158C26.6674 26.6762 26.587 26.6365 26.5065 26.5968C26.4462 26.577 26.3859 26.5373 26.3456 26.5175C26.1847 26.4382 26.0037 26.3787 25.8429 26.2993C25.2999 26.101 24.7971 25.9622 24.3144 25.9027C24.1535 25.8828 23.9725 25.863 23.8116 25.863L30.8505 22.0351ZM18.1202 12.2373L26.587 7.63586H26.6071C26.7277 7.55652 27.0897 7.33835 27.9746 7.8342C28.6383 8.21104 29.1612 8.76638 29.6036 9.52006C30.0461 10.2936 30.2472 11.0274 30.2472 11.7811V21.4202L21.519 26.1605C21.2977 26.2398 21.0966 26.3192 20.8955 26.4183V17.275C20.8955 16.4023 20.6341 15.5098 20.1313 14.6173C19.6285 13.7446 18.9649 13.0703 18.2006 12.6141C18.0599 12.5348 17.899 12.4554 17.7582 12.3959L18.1202 12.2373ZM45.6523 46.5297C45.0892 47.442 44.4054 48.1163 43.5809 48.513L42.2535 49.227L36.1599 52.5392C36.18 52.5194 36.18 52.4996 36.2001 52.4599C36.8034 51.4881 37.2056 50.2584 37.4269 48.8304C37.4671 48.5725 37.5073 48.2948 37.5274 48.0172C37.5475 47.8783 37.5475 47.7395 37.5475 47.6007C37.5877 47.1643 37.6079 46.6883 37.6079 46.1925C37.6079 45.6371 37.5877 45.1016 37.5475 44.5661L42.2535 42.0076L44.8479 40.5994L46.9193 39.4887C46.9394 39.8854 46.9595 40.2821 46.9595 40.6787C46.9595 43.1778 46.5171 45.1413 45.6523 46.5297Z" fill="white"/>
</svg>
